<mxfile host="app.diagrams.net" modified="2023-12-26T07:48:41.049Z" agent="Mozilla/5.0 (Windows NT 10.0; Win64; x64) AppleWebKit/537.36 (KHTML, like Gecko) Chrome/120.0.0.0 Safari/537.36" version="22.1.11" etag="QYUMgc7saVS2fpyoO4Qq" type="github">
  <diagram name="Page-1" id="iwbYW2v7mXxOqVJbs03y">
    <mxGraphModel>
      <root>
        <mxCell id="0" />
        <mxCell id="1" parent="0" />
      </root>
    </mxGraphModel>
  </diagram>
</mxfile>
